<?xml version="1.0" standalone="no"?>
<!DOCTYPE svg PUBLIC "-//W3C//DTD SVG 20010904//EN"
 "http://www.w3.org/TR/2001/REC-SVG-20010904/DTD/svg10.dtd">
<svg version="1.0" xmlns="http://www.w3.org/2000/svg"
 width="600.000000pt" height="600.000000pt" viewBox="0 0 600.000000 600.000000"
 preserveAspectRatio="xMidYMid meet">

<g transform="translate(0.000000,600.000000) scale(0.100000,-0.100000)"
fill="#000000" stroke="none">
<path d="M2771 5980 c-728 -61 -1406 -382 -1906 -901 -438 -456 -708 -1008
-806 -1649 -18 -119 -22 -190 -23 -400 -1 -344 27 -557 114 -855 298 -1017
1118 -1801 2151 -2054 261 -64 363 -75 699 -76 272 0 321 2 450 23 1198 192
2145 1051 2440 2212 110 431 120 899 28 1345 -113 554 -393 1071 -802 1481
-180 180 -274 258 -456 379 -395 263 -810 418 -1285 480 -146 19 -462 27 -604
15z m1689 -1680 c6 -11 8 -31 4 -44 -6 -25 -73 -100 -82 -91 -2 2 10 18 27 35
37 37 38 46 9 70 -19 15 -20 20 -9 34 18 22 38 20 51 -4z m-347 -102 c7 -21
-4 -38 -23 -38 -10 0 -20 6 -23 13 -7 20 4 37 23 37 10 0 20 -6 23 -12z m147
-20 c-1 -7 -7 -24 -15 -38 -22 -39 -18 -43 33 -35 58 9 51 -2 -14 -18 -47 -12
-48 -13 -76 -82 -52 -125 -60 -156 -47 -171 29 -35 105 30 180 151 27 43 49
75 49 70 0 -15 -68 -125 -107 -173 -64 -78 -147 -95 -159 -33 l-6 29 -47 -49
c-37 -38 -54 -49 -79 -49 -57 0 -55 41 13 198 28 64 38 78 59 80 l25 3 -41
-88 c-54 -118 -68 -157 -58 -173 21 -35 114 71 165 186 30 69 32 80 17 85 -13
5 -12 7 5 11 13 4 28 21 38 44 15 37 39 64 57 64 4 0 8 -6 8 -12z m379 -33
c15 -15 7 -51 -14 -59 -11 -4 -15 2 -15 17 0 46 -50 64 -70 27 -8 -16 -8 -27
3 -48 8 -15 24 -45 36 -67 22 -41 20 -66 -8 -99 -16 -19 -16 -19 18 0 41 23
91 83 131 155 36 66 40 57 4 -12 -35 -71 -100 -138 -159 -165 -65 -31 -100
-30 -130 1 -42 41 -28 95 23 95 19 0 23 -5 20 -22 -2 -14 -10 -23 -20 -23 -25
0 -31 -11 -18 -34 8 -16 20 -21 48 -21 21 0 43 5 50 12 20 20 13 80 -13 123
-14 22 -25 52 -25 66 0 25 30 61 60 72 20 8 62 -1 79 -18z m-875 -147 c3 -84
9 -187 12 -229 l6 -76 -28 -7 c-16 -4 -37 -9 -46 -12 -12 -4 -18 0 -18 12 0
15 -5 13 -29 -10 -20 -19 -43 -30 -74 -33 -87 -10 -141 45 -141 147 -1 99 63
170 153 170 26 0 52 -5 59 -12 9 -9 11 11 9 87 -2 98 -2 99 23 106 69 20 67
25 74 -143z m-794 -83 c17 -9 30 -19 30 -23 0 -4 -12 -23 -27 -41 -26 -30 -30
-32 -56 -22 -55 21 -123 -12 -156 -76 -15 -29 -14 -105 1 -138 21 -47 85 -67
143 -45 31 12 39 31 31 66 -6 24 -10 26 -46 20 l-40 -6 0 43 0 44 81 18 c44 9
83 14 86 11 4 -3 9 -54 12 -112 l6 -107 -31 -23 c-67 -51 -201 -71 -263 -39
-69 35 -107 119 -98 212 14 135 116 230 250 232 26 1 61 -6 77 -14z m375 -49
c66 -44 82 -149 33 -223 -58 -88 -194 -111 -261 -45 -26 26 -31 40 -35 90 -5
71 15 121 62 157 60 45 149 55 201 21z m1776 -223 l-109 -220 8 -129 c5 -71 7
-130 6 -131 -1 -1 -47 -13 -103 -26 l-100 -24 -7 60 c-3 33 -6 92 -6 131 l0
71 -126 164 c-69 90 -123 166 -120 168 6 6 195 53 213 53 6 0 35 -38 65 -85
l53 -85 40 104 c22 58 44 108 48 112 7 8 239 63 245 58 2 -1 -46 -101 -107
-221z m-2856 40 c3 -65 7 -126 8 -137 1 -12 17 7 42 52 37 67 42 72 87 82 26
7 52 10 57 8 6 -1 -12 -38 -40 -81 l-50 -78 61 -67 c66 -73 65 -78 -12 -88
-42 -6 -44 -5 -90 51 l-48 57 0 -71 c0 -69 -1 -71 -27 -77 -16 -3 -36 -8 -45
-10 -12 -4 -19 2 -22 18 -9 47 -25 433 -18 439 8 8 39 16 69 18 20 1 21 -4 28
-116z m2180 -36 c76 -30 115 -88 115 -173 0 -67 -13 -100 -55 -144 l-35 -35
85 -105 c46 -58 84 -108 85 -112 0 -10 -222 -60 -230 -51 -4 4 -35 50 -69 101
-34 50 -67 92 -73 92 -8 0 -9 -33 -4 -118 l6 -118 -96 -22 c-54 -12 -99 -21
-100 -19 -6 6 -38 636 -33 642 12 11 295 74 334 74 22 0 54 -6 70 -12z m-2366
-83 c23 -29 28 -52 35 -176 l6 -86 -33 -7 c-17 -4 -39 -9 -49 -11 -14 -4 -17
9 -23 93 -4 54 -12 104 -17 111 -15 18 -42 15 -63 -8 -15 -16 -17 -34 -14
-122 l4 -102 -43 -9 c-24 -5 -46 -6 -49 -4 -2 3 -8 70 -13 149 -6 101 -5 145
3 150 22 14 81 20 85 9 2 -7 16 -1 34 14 42 36 109 35 137 -1z m1905 -55 c12
-122 16 -115 -70 -134 l-76 -17 9 -146 c4 -81 8 -187 8 -236 l0 -89 -95 -22
c-52 -13 -97 -22 -99 -20 -2 2 -9 107 -17 232 -7 125 -13 229 -14 229 0 1 -34
-6 -75 -16 -41 -9 -77 -15 -80 -12 -3 3 -5 44 -5 91 l0 86 238 56 c130 31 244
57 253 58 13 1 18 -13 23 -60z m-2764 -41 l0 -91 23 21 c52 49 134 46 161 -7
8 -14 17 -76 21 -138 l7 -111 -33 -7 c-19 -3 -41 -8 -50 -11 -14 -4 -17 10
-22 88 -3 51 -8 101 -12 111 -10 23 -40 22 -66 -4 -20 -20 -21 -28 -14 -119 3
-54 3 -100 -2 -103 -4 -2 -26 -8 -49 -11 l-41 -7 -6 83 c-4 46 -9 149 -13 230
l-7 147 34 9 c70 21 69 22 69 -80z m-120 -12 c0 -43 -1 -44 -37 -50 -81 -15
-76 -1 -68 -164 4 -81 8 -158 9 -172 1 -22 -5 -27 -44 -36 -25 -6 -48 -10 -51
-8 -4 2 -10 70 -14 151 -8 177 -10 186 -38 180 -88 -20 -84 -22 -91 24 -4 23
-4 44 -2 47 8 7 320 79 329 75 4 -2 7 -24 7 -47z m599 39 c38 -19 49 -52 56
-172 l7 -101 -38 -11 c-29 -8 -40 -7 -46 1 -5 9 -14 6 -32 -11 -15 -15 -42
-25 -70 -28 -38 -5 -48 -2 -70 20 -33 33 -35 83 -4 122 22 28 109 75 141 75
20 0 22 11 5 28 -18 18 -41 15 -80 -12 l-36 -24 -26 22 -27 21 29 28 c53 51
138 70 191 42z m1712 -67 c0 -7 8 -152 18 -323 10 -170 18 -311 17 -312 -1 -1
-48 -13 -104 -26 l-102 -24 -77 111 c-42 61 -85 122 -96 136 l-19 25 6 -115
c4 -63 9 -133 12 -155 l6 -41 -97 -23 c-53 -13 -99 -21 -102 -17 -7 6 -43 628
-37 637 7 12 197 51 203 42 3 -5 30 -43 59 -86 29 -42 71 -102 93 -134 l41
-58 -8 130 c-4 72 -8 146 -8 165 l-1 34 90 22 c109 27 105 27 106 12z m-675
-378 c14 -237 10 -297 -27 -356 -52 -85 -159 -142 -284 -151 -118 -9 -199 28
-233 107 -14 32 -40 314 -41 445 l-1 51 97 22 c53 12 98 20 100 18 2 -2 9 -88
14 -192 11 -198 19 -238 51 -255 30 -16 84 -2 109 29 20 26 21 32 13 202 -5
96 -9 195 -9 219 l0 44 95 22 c52 12 97 21 99 19 2 -2 9 -102 17 -224z m-784
-13 c55 -32 94 -76 122 -137 16 -36 21 -66 21 -145 0 -90 -3 -106 -28 -157
-57 -116 -173 -198 -307 -217 -111 -15 -184 5 -254 69 -66 61 -90 124 -91 240
0 82 4 103 27 152 69 147 211 231 384 225 66 -3 89 -8 126 -30z m-614 -127
l42 -19 -54 -88 c-34 -56 -59 -86 -67 -84 -8 3 -34 6 -59 8 -89 8 -150 -55
-150 -152 0 -65 17 -96 62 -118 31 -15 43 -16 79 -7 23 7 55 25 72 41 l29 30
62 -58 c33 -32 62 -63 64 -70 6 -20 -70 -85 -135 -116 -186 -86 -354 -43 -430
111 -25 51 -28 68 -28 157 0 88 3 107 27 157 48 103 136 180 243 214 64 20
192 17 243 -6z m2901 -360 c7 -140 14 -267 17 -281 6 -30 -1 -34 -70 -44 -37
-6 -46 -4 -46 8 0 10 -9 6 -31 -14 -62 -58 -153 -61 -214 -8 -44 39 -58 84
-53 169 3 57 9 77 33 112 52 74 151 108 217 74 l27 -14 -5 86 c-3 48 -7 102
-9 119 -3 29 0 34 23 39 15 3 41 9 57 14 17 4 33 4 36 1 4 -3 12 -121 18 -261z
m861 264 c0 -16 -153 -520 -164 -543 -28 -52 -93 -91 -152 -91 -22 0 -24 4
-24 55 0 50 2 55 23 55 33 0 45 12 60 55 l14 40 -84 169 c-46 92 -83 170 -81
172 2 2 32 10 66 18 l62 14 14 -31 c7 -18 26 -65 42 -104 16 -40 31 -73 34
-73 3 0 19 55 36 122 l30 123 39 12 c44 13 85 16 85 7z m-492 -141 c13 -8 30
-29 37 -46 10 -25 26 -177 30 -281 0 -5 -11 -13 -25 -16 -77 -21 -80 -21 -80
-4 0 12 -6 10 -30 -10 -62 -52 -152 -57 -189 -10 -66 84 -12 178 128 225 46
16 61 25 59 38 -6 29 -74 27 -114 -4 l-34 -26 -30 23 c-39 28 -35 45 17 81 76
54 175 67 231 30z m-863 -187 c19 -8 35 -18 35 -22 0 -4 -11 -22 -24 -39 -23
-30 -28 -32 -74 -27 -37 3 -52 0 -66 -13 -23 -23 -4 -45 40 -45 18 0 52 -7 74
-16 99 -40 90 -164 -15 -218 -53 -27 -151 -34 -194 -12 -34 18 -33 24 7 75 17
22 22 23 54 12 43 -14 85 -6 98 19 13 24 -4 36 -65 45 -74 10 -102 29 -116 74
-20 68 26 134 117 166 51 18 86 18 129 1z m-277 -93 c3 -50 2 -51 -31 -62 -66
-22 -72 -37 -69 -175 l3 -123 -45 -12 c-78 -19 -73 -29 -80 152 -4 89 -9 174
-12 188 -4 24 -1 26 46 37 68 16 70 16 70 -10 1 -22 1 -22 17 4 18 28 70 60
88 54 6 -1 11 -25 13 -53z m-1017 -50 c1 -32 4 -85 8 -118 6 -55 7 -58 19 -38
18 32 63 53 112 53 90 0 109 -35 121 -219 4 -74 6 -137 4 -139 -8 -9 -115 -30
-116 -24 0 4 -4 60 -8 124 -5 69 -13 124 -21 133 -19 22 -48 18 -77 -11 l-26
-26 6 -127 7 -128 -56 -12 c-30 -7 -58 -11 -61 -8 -5 5 -32 436 -33 523 l0 52
48 10 c75 15 72 17 73 -45z m693 -135 c4 -84 9 -169 12 -190 l5 -36 -51 -11
c-68 -15 -70 -14 -70 9 0 16 -6 14 -33 -16 -28 -31 -41 -37 -85 -42 -102 -9
-128 33 -138 226 l-7 130 44 12 c24 6 51 13 60 16 14 4 17 -12 23 -118 10
-158 30 -188 93 -134 l28 24 -3 130 -4 130 39 10 c85 22 80 31 87 -140z m-844
64 l0 -58 -67 -14 -68 -15 0 -40 c1 -22 4 -119 9 -217 l8 -176 -56 -13 c-31
-7 -59 -9 -62 -6 -4 3 -11 99 -17 212 -7 132 -14 205 -21 205 -6 0 -38 -7 -71
-14 -33 -8 -61 -14 -61 -13 -1 1 -4 26 -5 56 l-4 54 200 48 c110 26 203 48
208 48 4 1 7 -25 7 -57z"/>
<path d="M3584 3878 c-24 -11 -44 -48 -44 -81 0 -75 91 -93 126 -25 19 37 10
82 -19 103 -25 17 -34 18 -63 3z"/>
<path d="M3203 3785 c-45 -31 -36 -123 13 -142 23 -9 70 16 83 43 36 79 -29
146 -96 99z"/>
<path d="M4249 3463 c-2 -18 3 -98 7 -102 2 -2 24 4 48 13 47 18 62 41 51 76
-5 16 -15 20 -56 20 -27 0 -49 -3 -50 -7z"/>
<path d="M1610 3312 c-43 -21 -48 -55 -9 -60 27 -3 52 19 63 56 9 27 -6 29
-54 4z"/>
<path d="M1699 2847 c-50 -33 -71 -80 -66 -151 3 -51 8 -63 35 -87 37 -33 85
-38 135 -14 51 25 71 61 75 137 4 66 3 69 -31 103 -43 43 -95 48 -148 12z"/>
<path d="M3986 2454 c-36 -37 -37 -114 -1 -149 28 -29 34 -30 81 -10 61 25 82
118 37 167 -25 28 -84 24 -117 -8z"/>
<path d="M4484 2451 c-62 -28 -71 -81 -14 -81 40 0 80 35 80 71 0 34 -10 35
-66 10z"/>
</g>
</svg>
